<?xml version="1.0" encoding="UTF-8" standalone="no"?>
<!-- Created with Inkscape (http://www.inkscape.org/) -->

<svg
   width="204.3932mm"
   height="72.830185mm"
   viewBox="0 0 204.3932 72.830185"
   version="1.1"
   id="svg1"
   inkscape:version="1.4.4 (dcaf3e7d9e, 2026-05-05)"
   sodipodi:docname="logo_union.svg"
   xml:space="preserve"
   xmlns:inkscape="http://www.inkscape.org/namespaces/inkscape"
   xmlns:sodipodi="http://sodipodi.sourceforge.net/DTD/sodipodi-0.dtd"
   xmlns="http://www.w3.org/2000/svg"
   xmlns:svg="http://www.w3.org/2000/svg"><sodipodi:namedview
     id="namedview1"
     pagecolor="#ffffff"
     bordercolor="#000000"
     borderopacity="0.25"
     inkscape:showpageshadow="2"
     inkscape:pageopacity="0.0"
     inkscape:pagecheckerboard="0"
     inkscape:deskcolor="#d1d1d1"
     inkscape:document-units="mm"
     inkscape:zoom="0.5"
     inkscape:cx="81"
     inkscape:cy="-41"
     inkscape:window-width="1920"
     inkscape:window-height="1008"
     inkscape:window-x="0"
     inkscape:window-y="0"
     inkscape:window-maximized="1"
     inkscape:current-layer="svg1"
     showguides="false"><sodipodi:guide
       position="71.304176,2043.7399"
       orientation="0,-1"
       id="guide1"
       inkscape:locked="false" /><sodipodi:guide
       position="233.21605,2040.6423"
       orientation="1,0"
       id="guide2"
       inkscape:locked="false" /><sodipodi:guide
       position="56.117133,2045.4073"
       orientation="1,0"
       id="guide3"
       inkscape:locked="false" /><sodipodi:guide
       position="66.371144,2067.2351"
       orientation="0,-1"
       id="guide5"
       inkscape:locked="false" /><sodipodi:guide
       position="36.204175,2063.5834"
       orientation="0,-1"
       id="guide6"
       inkscape:locked="false" /><sodipodi:guide
       position="36.202903,2063.8179"
       orientation="1,0"
       id="guide7"
       inkscape:locked="false" /><sodipodi:guide
       position="122.38939,2060.1229"
       orientation="0,-1"
       id="guide8"
       inkscape:locked="false" /><sodipodi:guide
       position="62.369321,2063.9444"
       orientation="1,0"
       id="guide9"
       inkscape:locked="false" /><sodipodi:guide
       position="66.664666,2067.1111"
       orientation="1,0"
       id="guide10"
       inkscape:locked="false" /><sodipodi:guide
       position="71.332081,2047.3914"
       orientation="0,-1"
       id="guide11"
       inkscape:locked="false" /><sodipodi:guide
       position="35.486704,2033.4511"
       orientation="0,-1"
       id="guide13"
       inkscape:locked="false" /><sodipodi:guide
       position="135.48527,2039.767"
       orientation="0,-1"
       id="guide15"
       inkscape:locked="false" /><sodipodi:guide
       position="110.22997,2054.2023"
       orientation="1,0"
       id="guide16"
       inkscape:locked="false" /><sodipodi:guide
       position="85.550469,2056.4688"
       orientation="0,-1"
       id="guide20"
       inkscape:locked="false" /><sodipodi:guide
       position="115.08709,2053.8964"
       orientation="0,-1"
       id="guide21"
       inkscape:locked="false" /><sodipodi:guide
       position="114.78453,2049.4238"
       orientation="0,-1"
       id="guide22"
       inkscape:locked="false" /><sodipodi:guide
       position="204.39313,2043.7389"
       orientation="1,0"
       id="guide23"
       inkscape:locked="false" /><sodipodi:guide
       position="188.90328,2033.965"
       orientation="0,-1"
       id="guide24"
       inkscape:locked="false" /><sodipodi:guide
       position="186.49065,2039.2531"
       orientation="0,-1"
       id="guide25"
       inkscape:locked="false" /><sodipodi:guide
       position="179.09962,2031.4306"
       orientation="0,-1"
       id="guide33"
       inkscape:locked="false" /><sodipodi:guide
       position="99.778929,2037.5894"
       orientation="1,0"
       id="guide34"
       inkscape:locked="false" /><sodipodi:guide
       position="85.543099,2041.5664"
       orientation="0,1"
       id="guide37"
       inkscape:locked="false"
       inkscape:label=""
       inkscape:color="rgb(0,134,229)" /><sodipodi:guide
       position="82.258289,2037.3799"
       orientation="1,0"
       id="guide38"
       inkscape:locked="false" /><sodipodi:guide
       position="134.81321,2038.1392"
       orientation="-1,0"
       id="guide39"
       inkscape:locked="false"
       inkscape:label=""
       inkscape:color="rgb(61,56,70)" /><sodipodi:guide
       position="135.43056,2038.3459"
       orientation="-1,0"
       id="guide40"
       inkscape:locked="false"
       inkscape:label=""
       inkscape:color="rgb(0,134,229)" /><sodipodi:guide
       position="135.12188,2041.8233"
       orientation="-1,0"
       id="guide41"
       inkscape:locked="false"
       inkscape:label=""
       inkscape:color="rgb(61,56,70)" /><sodipodi:guide
       position="134.96754,2041.5664"
       orientation="-1,0"
       id="guide43"
       inkscape:locked="false"
       inkscape:label=""
       inkscape:color="rgb(101,48,252)" /><sodipodi:guide
       position="135.27623,2041.5664"
       orientation="-1,0"
       id="guide44"
       inkscape:locked="false"
       inkscape:label=""
       inkscape:color="rgb(220,138,221)" /><sodipodi:guide
       position="134.65886,2041.4375"
       orientation="-1,0"
       id="guide45"
       inkscape:locked="false"
       inkscape:label=""
       inkscape:color="rgb(220,138,221)" /><sodipodi:guide
       position="134.96754,2041.8747"
       orientation="0,1"
       id="guide48"
       inkscape:locked="false"
       inkscape:label=""
       inkscape:color="rgb(220,138,221)" /><sodipodi:guide
       position="134.96754,2041.2573"
       orientation="0,1"
       id="guide49"
       inkscape:locked="false"
       inkscape:label=""
       inkscape:color="rgb(220,138,221)" /><sodipodi:guide
       position="135.34056,2041.225"
       orientation="-1,0"
       id="guide53"
       inkscape:locked="false"
       inkscape:label=""
       inkscape:color="rgb(224,27,36)" /><sodipodi:guide
       position="135.03834,2041.1928"
       orientation="0,1"
       id="guide54"
       inkscape:locked="false"
       inkscape:label=""
       inkscape:color="rgb(224,27,36)" /><sodipodi:guide
       position="134.59454,2041.225"
       orientation="-1,0"
       id="guide55"
       inkscape:locked="false"
       inkscape:label=""
       inkscape:color="rgb(224,27,36)" /><sodipodi:guide
       position="134.65887,2041.9392"
       orientation="0,1"
       id="guide56"
       inkscape:locked="false"
       inkscape:label=""
       inkscape:color="rgb(224,27,36)" /><sodipodi:guide
       position="187.11911,2037.0818"
       orientation="1,0"
       id="guide57"
       inkscape:locked="false" /><sodipodi:guide
       position="187.73647,2037.1929"
       orientation="1,0"
       id="guide58"
       inkscape:locked="false" /><sodipodi:guide
       position="187.42779,2040.7943"
       orientation="-1,0"
       id="guide59"
       inkscape:locked="false"
       inkscape:label=""
       inkscape:color="rgb(143,240,164)" /><sodipodi:guide
       position="187.27345,2040.7943"
       orientation="-1,0"
       id="guide60"
       inkscape:locked="false"
       inkscape:label=""
       inkscape:color="rgb(38,162,105)" /><sodipodi:guide
       position="84.490969,2041.8225"
       orientation="0,-1"
       id="guide61"
       inkscape:locked="false" /><sodipodi:guide
       position="84.604659,2041.3087"
       orientation="0,-1"
       id="guide62"
       inkscape:locked="false" /><sodipodi:guide
       position="134.96755,2041.4892"
       orientation="0,1"
       id="guide63"
       inkscape:locked="false"
       inkscape:label=""
       inkscape:color="rgb(97,53,131)" /><sodipodi:guide
       position="135.04472,2041.5664"
       orientation="-1,0"
       id="guide64"
       inkscape:locked="false"
       inkscape:label=""
       inkscape:color="rgb(97,53,131)" /><sodipodi:guide
       position="134.89038,2041.5663"
       orientation="-1,0"
       id="guide65"
       inkscape:locked="false"
       inkscape:label=""
       inkscape:color="rgb(97,53,131)" /><sodipodi:guide
       position="134.81321,2041.6436"
       orientation="0,1"
       id="guide66"
       inkscape:locked="false"
       inkscape:label=""
       inkscape:color="rgb(97,53,131)" /><sodipodi:guide
       position="134.89038,2041.7208"
       orientation="0,1"
       id="guide67"
       inkscape:locked="false"
       inkscape:label=""
       inkscape:color="rgb(61,56,70)" /><sodipodi:guide
       position="134.89038,2041.412"
       orientation="0,1"
       id="guide68"
       inkscape:locked="false"
       inkscape:label=""
       inkscape:color="rgb(97,53,131)" /></sodipodi:namedview><defs
     id="defs1"><rect
       x="370.43149"
       y="338.15906"
       width="1019.6555"
       height="312.995"
       id="rect4" /><rect
       x="370.43149"
       y="338.15906"
       width="1019.6555"
       height="312.995"
       id="rect6" /><rect
       x="370.43149"
       y="338.15906"
       width="1019.6555"
       height="312.995"
       id="rect9" /><rect
       x="370.43149"
       y="338.15906"
       width="1019.6555"
       height="312.995"
       id="rect12" /><rect
       x="370.43149"
       y="338.15906"
       width="1019.6555"
       height="312.995"
       id="rect15" /><rect
       x="370.43149"
       y="338.15906"
       width="1019.6555"
       height="312.995"
       id="rect19" /></defs><path
     id="path12"
     style="display:inline;fill:#263342;fill-opacity:1;fill-rule:nonzero;stroke:none;stroke-width:0.0352778"
     inkscape:label="Logo"
     d="M 35.252632,0 C 34.81386,0.01437127 34.373424,0.03254988 33.931779,0.05839547 l 0.0043,0.02066084 c 0,0 -0.598684,0.19064722 -0.686783,0.63665329 -0.0025,0.007867 -0.0053,0.0121307 -0.0093,0.0201581 C 33.127559,3.8506385 31.754144,6.3313365 29.611749,6.8073321 27.455238,7.2864645 25.144002,5.5957998 23.726321,2.7884555 23.44334,2.4646513 22.865908,2.5383414 22.865908,2.5383414 l -0.0042,-0.020667 c -0.411381,0.1636811 -0.818226,0.3335687 -1.222148,0.5064293 l 0.01137,0.019119 c 0,0 -0.460808,0.3556387 -0.432015,0.7828977 0.985176,2.9865559 0.5507,5.8184373 -1.312582,7.0057745 -1.84958,1.180676 -4.576298,0.402621 -6.860045,-1.7208249 -0.0065,-0.00211 -0.0142,-0.00415 -0.02119,-0.00982 C 12.647472,8.849077 12.089793,9.13949 12.089793,9.13949 l -0.01241,-0.019116 c -0.330421,0.2938546 -0.656125,0.590177 -0.975651,0.892452 l 0.01964,0.01757 c 0,0 -0.311155,0.491988 -0.138492,0.883667 1.947511,2.469186 2.507388,5.278796 1.163753,7.033683 -1.336027,1.738746 -4.1650455,1.937593 -7.0352296,0.728637 -0.00751,-0.0015 -0.014933,-8.8e-5 -0.023259,-0.0026 -0.4410306,-0.108006 -0.8660969,0.355016 -0.8660969,0.355016 l -0.018609,-0.014 c -0.2111566,0.386611 -0.4134844,0.778268 -0.6102979,1.172547 l 0.021704,0.0057 c 0,0 -0.1237281,0.569657 0.1731159,0.879534 2.6747804,1.653501 4.1612794,4.101948 3.4984941,6.211501 -0.6593677,2.090723 -3.2493298,3.248469 -6.36188527,3.09077 -0.006746,0.0011 -0.0128836,0.0068 -0.021188,0.0083 -0.45228886,0.04629 -0.69349795,0.627345 -0.69349795,0.627345 l -0.0356607,-0.01037 c -0.065796,0.437429 -0.1240038,0.877084 -0.174149772296,1.318265 l 0.0392968023,-0.0054 c 0,0 0.07787625,0.579245 0.46250431,0.768433 3.07916682,0.638521 5.31490992,2.432809 5.41155512,4.637436 0.097102,2.193688 -1.9423429,4.164607 -4.92063007,5.082896 -0.004949,0.0043 -0.0105864,0.0097 -0.0186092,0.01134 -0.40709375,0.202473 -0.43511615,0.829918 -0.43511615,0.829918 l -0.0356611,0.0016 c 0.0458277,0.224713 0.09134,0.445869 0.14107603,0.669725 l -4.05e-6,0.002 c 0.046675,0.210066 0.0969491,0.419012 0.14676182,0.62477 l 0.034093,-0.01208 c 0,0 0.26985705,0.514449 0.69608285,0.560695 3.1123766,-0.452994 5.8264499,0.469201 6.6724601,2.507341 0.8409622,2.028417 -0.4016349,4.57766 -2.8861291,6.45955 -0.00399,0.0053 -0.00669,0.01203 -0.012917,0.01701 -0.3140861,0.32997 -0.1255739,0.927591 -0.1255739,0.927591 l -0.049089,0.0222 c 0.2319065,0.378512 0.4724334,0.75503 0.7172688,1.123443 l 0.039271,-0.03413 c 0,0 0.4299266,0.388618 0.8464604,0.288873 2.7703072,-1.490038 5.6349412,-1.551975 7.1282472,0.07493 1.482668,1.614798 1.187402,4.437909 -0.504362,7.054348 -0.0015,0.0081 -0.0018,0.01474 -0.0051,0.02275 -0.183191,0.416537 0.198954,0.913647 0.198954,0.913647 l -0.03721,0.03361 c 0.347736,0.276905 0.700156,0.548909 1.0573,0.812872 l 0.02377,-0.04492 c 0,0 0.538343,0.220076 0.894517,-0.01813 2.093988,-2.348019 4.764208,-3.38563 6.724137,-2.368339 1.946688,1.013011 2.633861,3.765511 1.938899,6.80372 0.0015,0.0069 0.0041,0.01358 0.0031,0.02115 -0.02944,0.454646 0.500227,0.792711 0.500227,0.792711 l -0.02842,0.05321 c 0.421679,0.141174 0.846775,0.274578 1.274341,0.399978 l 0.0078,-0.05998 c 0,0 0.582472,0.02629 0.834575,-0.322465 1.165984,-2.918813 3.318808,-4.81044 5.509227,-4.523755 2.175879,0.286303 3.762894,2.636984 4.148585,5.727819 0.0034,0.0058 0.0078,0.01275 0.01139,0.02275 0.126535,0.434444 0.740524,0.573095 0.740524,0.573095 l -0.0087,0.05944 c 0.445124,-0.0086 0.890139,-0.02808 1.335829,-0.05844 l -0.01394,-0.06147 c 0,0 0.554366,-0.177837 0.674373,-0.587567 0.09551,-3.143548 1.472712,-5.657452 3.629233,-6.136577 2.142385,-0.475996 4.437778,1.193074 5.85856,3.967201 0.0062,0.0026 0.01212,0.0083 0.0165,0.01443 0.268677,0.366741 0.891419,0.282678 0.891419,0.282678 l 0.01377,0.06198 c 0.416629,-0.161203 0.828021,-0.331977 1.234548,-0.512635 l -0.03302,-0.0507 c 0,0 0.497228,-0.384825 0.42788,-0.831985 -0.0015,-0.01093 -1.12e-4,-0.01843 4.39e-4,-0.02587 -0.887145,-2.740117 -0.575522,-5.34135 0.93896,-6.651276 l -2.153866,-3.552236 c -1.519081,0.938165 -3.151012,1.729645 -4.880844,2.350763 L 39.217169,44.747847 c 4.130752,-1.49235 6.611622,-5.85246 5.633766,-10.25364 -0.273919,-1.232884 -0.79538,-2.349334 -1.498101,-3.309868 L 57.47497,21.165825 c 1.070257,1.491437 1.992254,3.110115 2.739372,4.837948 l 3.816818,-1.716179 c -0.482035,-1.949508 0.774967,-4.272348 3.098521,-6.008418 0.267977,-0.334184 0.09405,-0.891933 0.09405,-0.891933 l 0.03672,-0.01244 c -0.231911,-0.378522 -0.470711,-0.751858 -0.7152,-1.120352 l -0.02846,0.02476 c 0,0 -0.463996,-0.424938 -0.892975,-0.275441 -0.0089,0.0015 -0.0162,4.09e-4 -0.02382,0.0021 -2.752928,1.460886 -5.588907,1.508798 -7.07192,-0.10594 -1.494074,-1.630333 -1.183623,-4.478093 0.538985,-7.1086047 0.137728,-0.4064336 -0.215491,-0.8702314 -0.215491,-0.8702314 l 0.01813,-0.014992 C 58.524107,7.6323218 58.174123,7.3633321 57.819121,7.1025089 l -0.01087,0.020674 c 0,0 -0.580168,-0.2397142 -0.93431,0.044958 -0.0067,0.00511 -0.01372,0.00674 -0.02012,0.011886 -2.088205,2.3106069 -4.735833,3.3288015 -6.68176,2.3192385 -1.960689,-1.0207357 -2.643626,-3.8036539 -1.924946,-6.8652142 -0.0088,-0.428095 -0.499193,-0.742074 -0.499193,-0.742074 l 0.01038,-0.02377 C 47.341197,1.7295943 46.920648,1.5991675 46.496882,1.4728835 l -0.0037,0.022222 c 0,0 -0.628008,-0.026551 -0.862999,0.3617347 -0.0045,0.00819 -0.01035,0.012818 -0.01547,0.017566 C 44.444711,4.7652104 42.305007,6.6249597 40.128782,6.3387325 37.938362,6.0520442 36.344783,3.6701832 35.972956,0.54735509 35.817778,0.14817603 35.250005,0.02180636 35.250005,0.02180636 Z m 1.414379,10.245887 c 6.067263,0.103881 11.809094,2.328317 16.323039,6.098332 l -11.162112,13.23124 c -2.032949,-1.669632 -4.783011,-2.424861 -7.549415,-1.810225 -2.80636,0.623514 -5.001252,2.517274 -6.122105,4.938195 L 12.346533,25.649078 c 3.279839,-7.248003 9.812528,-12.920258 18.178219,-14.77894 2.061462,-0.458015 4.119841,-0.658878 6.142259,-0.624251 z m -0.540017,21.509796 c 2.1671,-0.03598 4.133876,1.453202 4.621943,3.649907 0.558556,2.513979 -1.025519,5.001693 -3.537768,5.559864 -2.511914,0.558081 -5.000809,-1.024821 -5.559355,-3.5388 -0.557788,-2.510539 1.025865,-5.001774 3.537768,-5.559864 0.31403,-0.06978 0.627827,-0.10599 0.937414,-0.111087 z m -25.71626,0.192238 17.071829,2.871141 c -0.207735,1.133907 -0.19781,2.324178 0.0677,3.519171 0.978616,4.40463 5.074187,7.30355 9.449552,6.902414 l 1.591632,17.23823 C 25.658422,63.682751 13.545082,55.106144 10.653614,42.092008 9.8892372,38.651654 9.8424955,35.218194 10.410734,31.947921 Z m 47.319595,0.81804 -2e-6,3.651458 4.615736,-3e-6 5e-6,16.192295 -4.615737,-6e-6 -2e-6,3.651458 13.555758,10e-7 2e-6,-3.651458 -4.615736,4e-6 -3e-6,-19.843754 z m 52.500671,0 0,23.495201 4.32376,1e-6 1e-5,-5.683374 1.43144,-1.55546 4.38267,7.238834 5.1418,2e-6 -6.45697,-9.905849 5.84358,-6.477129 -4.96663,4e-6 -3.15535,3.65094 -2.0159,2.571933 -0.20464,5.2e-5 0,-13.335105 z m 78.88253,-5e-6 -1e-5,23.495212 4.32377,0 0,-5.683373 1.43143,-1.555981 4.38268,7.239354 5.14181,2e-6 -6.45697,-9.90638 5.84357,-6.476607 -4.96714,5e-6 -3.15485,3.650939 -2.0159,2.571933 -0.20463,5.2e-5 0,-13.335106 z m -88.96202,7.110675 c -4.703734,6e-6 -7.596431,2.890535 -7.596438,8.192784 3e-6,5.302258 2.863216,8.190716 7.625378,8.190714 3.35981,6e-6 5.40493,-1.619023 6.48591,-4.000265 l -3.27215,-1.650036 c -0.64275,1.333499 -1.51901,1.998845 -3.1843,1.998845 -2.045111,6e-6 -3.155367,-0.666663 -3.155369,-2.825669 l 5e-6,-2.667014 c -10e-7,-2.159007 1.139506,-3.492811 3.096964,-3.492817 1.60686,7e-6 2.42484,0.95261 2.95072,2.222612 l 3.33055,-1.968356 c -1.05176,-2.381256 -2.9799,-4.000794 -6.28127,-4.000798 z m -18.114135,5.22e-4 c -4.703738,-4e-6 -7.566471,2.890015 -7.566468,8.192263 2e-6,5.302248 2.862725,8.190716 7.566463,8.19072 4.703736,-5e-6 7.566984,-2.888473 7.566981,-8.190721 -2e-6,-5.302248 -2.863249,-8.192257 -7.566976,-8.192262 z m 78.882515,-4e-6 c -4.70373,5e-6 -7.56646,2.890014 -7.56646,8.192272 0,5.302249 2.86273,8.190716 7.56647,8.190711 4.70372,5e-6 7.56697,-2.888463 7.56698,-8.190711 0,-5.302249 -2.86325,-8.192268 -7.56699,-8.192272 z m 10.92699,0.001 0,3.650937 3.47679,5e-6 -1e-5,9.080578 -3.47679,-5e-6 0,3.651459 12.76718,10e-7 0,-3.651459 -4.96662,4e-6 0,-5.651335 c 0,-1.841497 1.31446,-3.427182 3.2427,-3.427183 l 3.21376,2e-6 0,-3.653001 -1.43144,4e-6 c -2.74628,0 -4.17763,2.09552 -4.82037,4.254523 l -0.20464,5.3e-5 0,-4.254528 z m -44.55387,0.0036 4.2943,16.379365 4.44108,-1e-6 1.86965,-7.048668 1.05162,-4.318082 0.0878,-3.03e-4 1.08107,4.318089 1.86965,7.048658 4.52841,7e-6 4.23644,-16.379365 -4.00286,-10e-7 -1.48983,6.441464 -1.05162,5.080312 -0.11678,4.9e-5 -1.25626,-5.080304 -1.78232,-6.441472 -3.94394,3e-6 -1.75339,6.441463 -1.22679,5.080315 -0.11679,5e-5 -1.05161,-5.080316 -1.49035,-6.441466 z m -45.255641,3.649392 c 1.928236,-1e-6 3.096974,0.823493 3.096967,3.236493 l -1e-6,2.603458 c 3e-6,2.412999 -1.168728,3.23753 -3.096964,3.237531 -1.928236,2e-6 -3.096456,-0.824526 -3.096449,-3.237526 l 10e-7,-2.603468 c -3e-6,-2.412999 1.16821,-3.236486 3.096446,-3.236488 z m 78.882531,-5e-6 c 1.92823,-10e-7 3.09696,0.823494 3.09696,3.236494 l 0,2.603467 c 1e-5,2.413 -1.16873,3.23752 -3.09696,3.237521 -1.92825,3e-6 -3.09646,-0.824526 -3.09646,-3.237525 l 0,-2.603458 c 0,-2.412999 1.16822,-3.236497 3.09646,-3.236499 z m 26.35343,14.529345 a 0.37300774,0.37319949 0 0 0 -0.37311,0.373112 0.37300774,0.37319949 0 0 0 0.37311,0.373099 0.37300774,0.37319949 0 0 0 0.3731,-0.373101 0.37300774,0.37319949 0 0 0 -0.3731,-0.37311 z m -52.30586,5.23e-4 a 0.37300774,0.37319949 0 0 0 -0.3731,0.373101 0.37300774,0.37319949 0 0 0 0.3731,0.373099 0.37300774,0.37319949 0 0 0 0.3731,-0.373101 0.37300774,0.37319949 0 0 0 -0.3731,-0.373099 z m -55.375945,0.116269 3.6e-5,0.514175 2.666503,5e-6 6e-6,7.857397 0.617537,2.5e-5 -6e-6,-7.857407 2.642218,1e-6 -3.7e-5,-0.514175 z m 8.025353,-4e-6 -7e-6,8.371585 0.617538,2.4e-5 0,-4.146 c 5.3e-5,-0.555766 0.156424,-0.993864 0.469224,-1.313618 0.321023,-0.319771 0.753284,-0.342093 1.296564,-0.342097 0.535046,4e-6 0.954788,0.02231 1.259346,0.342098 0.304567,0.312145 0.456828,0.750233 0.456825,1.31361 l 0,4.146 0.617018,5.6e-5 6e-6,-4.226096 c 0,-0.677576 -0.201288,-1.214354 -0.60462,-1.61024 -0.40334,-0.395856 -0.938838,-0.479555 -1.605584,-0.479559 -0.47742,1.8e-5 -0.979712,0.0352 -1.308961,0.24081 -0.329263,0.197936 -0.579811,0.787034 -0.579811,0.787034 l -7e-6,-3.083532 z m 9.766845,2.055695 c -0.749065,1.4e-5 -1.341915,0.09497 -1.778187,0.513661 -0.428045,0.411117 -0.641826,0.963438 -0.641828,1.656231 l 0,1.94097 c 1.9e-5,0.692792 0.213784,1.248872 0.64183,1.667598 0.428035,0.411103 1.020882,0.537428 1.778182,0.537426 0.633819,4.2e-5 1.156295,-0.06947 1.567864,-0.366377 0.419803,-0.296911 0.678943,-0.700189 0.777735,-1.210262 l -0.617029,-5.5e-5 c -0.06582,0.357825 -0.255122,0.639355 -0.567925,0.844911 -0.312795,0.205526 -0.699686,0.229443 -1.160647,0.229447 -0.576201,-1.9e-5 -1.020975,-0.08075 -1.333766,-0.400491 -0.312801,-0.319752 -0.469224,-0.754102 -0.469222,-1.302252 l 1.4e-5,-0.856282 4.198195,0 2.6e-5,-1.08469 c -1.8e-5,-0.692792 -0.213777,-1.245116 -0.641813,-1.656229 -0.419812,-0.418753 -1.004327,-0.513664 -1.753383,-0.513659 z m 15.266247,3e-6 c -0.74906,1.4e-5 -1.3419,0.09497 -1.77819,0.513661 -0.42803,0.411106 -0.64181,0.963428 -0.64181,1.656231 l 0,1.940959 c 1e-5,0.692802 0.21378,1.248883 0.64181,1.6676 0.42804,0.411112 1.0209,0.537437 1.77819,0.537435 0.63383,4.1e-5 1.15681,-0.06947 1.56838,-0.366388 0.41981,-0.296902 0.67895,-0.700179 0.77774,-1.210262 l -0.61754,-2.5e-5 c -0.0658,0.357816 -0.25513,0.639356 -0.56793,0.844912 -0.31279,0.205525 -0.69969,0.229443 -1.16065,0.229437 -0.57621,-1.9e-5 -1.02046,-0.08074 -1.33325,-0.400493 -0.3128,-0.319742 -0.46922,-0.754092 -0.46922,-1.302241 l 1e-5,-0.856283 4.19769,1e-6 2e-5,-1.084689 c -1e-5,-0.692793 -0.21378,-1.245116 -0.64182,-1.656229 -0.4198,-0.418753 -1.00432,-0.513664 -1.75338,-0.513659 z m 5.04983,-7e-6 0,6.315897 0.61752,2.5e-5 0,-4.146 c -4e-5,-0.55576 0.15643,-0.993854 0.46923,-1.313608 0.32102,-0.319771 0.75329,-0.342104 1.29656,-0.342107 0.53504,4e-6 0.95478,0.02231 1.25936,0.342107 0.30455,0.312136 0.45682,0.750234 0.45681,1.313611 l 0,4.146 0.61754,2.4e-5 0,-4.226106 c 1e-5,-0.677565 -0.20178,-1.214344 -0.60514,-1.610239 -0.40332,-0.395846 -0.93831,-0.479556 -1.60506,-0.47955 -0.48565,1.5e-5 -0.89341,-0.01129 -1.22267,0.194297 -0.32103,0.197939 -0.54315,0.475723 -0.66662,0.833548 l -4e-5,-1.027841 z m 9.59372,-3e-6 c -0.67497,4.2e-5 -1.21779,0.09498 -1.62935,0.513667 -0.41156,0.418716 -0.61754,0.971046 -0.61754,1.656235 l 1e-5,1.873266 c -5e-5,0.685182 0.20597,1.237514 0.61753,1.656235 0.41156,0.411107 0.95438,0.616496 1.62935,0.616493 0.47742,-1.7e-5 0.88101,-0.102967 1.21026,-0.308506 0.3375,-0.205556 0.56379,-0.487099 0.67903,-0.844908 l -4e-5,1.289845 c 4e-5,0.913583 -0.49796,1.370456 -1.49396,1.370457 l -1.79008,2e-6 1e-5,0.513666 1.79006,-10e-7 c 1.40757,3.7e-5 2.11151,-0.627939 2.11151,-1.88412 l -1e-5,-6.452325 -0.61753,-2.5e-5 3e-5,1.039203 c -0.11521,-0.357808 -0.34153,-0.63935 -0.67903,-0.844903 -0.32926,-0.20563 -0.73284,-0.194308 -1.21026,-0.194311 z m 5.34645,9e-6 1e-5,0.513656 2.17299,5e-6 0,5.288563 -2.4815,-2e-6 1e-5,0.513666 5.43274,0 0,-0.513666 -2.33372,7e-6 1e-5,-5.802231 z m 7.28482,-4e-6 0,6.315896 0.61754,2.5e-5 0,-4.146 c -5e-5,-0.555761 0.15642,-0.993855 0.46922,-1.313609 0.32103,-0.31977 0.75329,-0.342103 1.29656,-0.342106 0.53505,3e-6 0.95479,0.02231 1.25935,0.342107 0.30457,0.312135 0.45682,0.750234 0.45683,1.313611 l 0,4.146 0.61701,-4.4e-5 0,-4.226096 c 0,-0.677576 -0.20128,-1.214345 -0.60461,-1.610241 -0.40335,-0.395845 -0.93833,-0.479555 -1.60508,-0.47955 -0.48565,1.5e-5 -0.89341,-0.01129 -1.22266,0.194297 -0.32103,0.197938 -0.54314,0.475722 -0.66663,0.833549 l -4e-5,-1.027842 z m 9.76685,-4e-6 c -0.74906,1.5e-5 -1.34192,0.09497 -1.77818,0.513671 -0.42805,0.411107 -0.64183,0.963428 -0.64183,1.656222 l 0,1.940969 c 2e-5,0.692802 0.21378,1.248883 0.64182,1.667599 0.42803,0.411113 1.02089,0.537437 1.77819,0.537435 0.63382,4.2e-5 1.1563,-0.06947 1.56786,-0.366387 0.41981,-0.296911 0.67947,-0.70018 0.77825,-1.210263 l -0.61754,-2.4e-5 c -0.0658,0.357816 -0.25512,0.639355 -0.56792,0.844912 -0.31279,0.205525 -0.69969,0.229442 -1.16065,0.229437 -0.5762,-2e-5 -1.02098,-0.08074 -1.33377,-0.400492 -0.31279,-0.319753 -0.46922,-0.754102 -0.46923,-1.302241 l 2e-5,-0.856282 4.19819,-10e-7 3e-5,-1.084689 c -2e-5,-0.692792 -0.21378,-1.245117 -0.64183,-1.656229 -0.4198,-0.418763 -1.00431,-0.513664 -1.75337,-0.51367 z m 15.26419,7e-6 c -0.74907,1.5e-5 -1.34141,0.09494 -1.77768,0.513661 -0.42804,0.411106 -0.64234,0.963429 -0.64234,1.656232 l 0,1.94096 c 2e-5,0.692802 0.21431,1.248881 0.64234,1.667598 0.42805,0.411112 1.02038,0.537438 1.77767,0.537436 0.63382,4.2e-5 1.15681,-0.06947 1.56839,-0.366378 0.4198,-0.296912 0.67894,-0.700189 0.77772,-1.210262 l -0.61753,-2.4e-5 c -0.0658,0.357825 -0.25513,0.639355 -0.56793,0.844911 -0.31278,0.205525 -0.69969,0.229443 -1.16065,0.229437 -0.5762,-1.9e-5 -1.02045,-0.08074 -1.33325,-0.400492 -0.31278,-0.319743 -0.46923,-0.754092 -0.46922,-1.302242 l 1e-5,-0.856282 4.19767,10e-7 3e-5,-1.084689 c -2e-5,-0.692793 -0.21378,-1.245117 -0.64181,-1.65623 -0.41982,-0.418752 -1.00433,-0.513663 -1.75339,-0.513659 z m 5.05033,-7e-6 0,6.315897 0.61702,-4.4e-5 0,-4.146 c 5e-5,-0.555767 0.15642,-0.993854 0.46922,-1.313608 0.32102,-0.319771 0.75328,-0.342104 1.29656,-0.342097 0.53505,4e-6 0.95479,0.02231 1.25935,0.342097 0.30457,0.312135 0.45682,0.750234 0.45682,1.313611 l 0,4.146 0.61754,2.4e-5 0,-4.226105 c 0,-0.677566 -0.2018,-1.214344 -0.60513,-1.61023 -0.40334,-0.395855 -0.93832,-0.479566 -1.60508,-0.479559 -0.48565,1.5e-5 -0.89341,-0.01129 -1.22266,0.194296 -0.32101,0.197948 -0.54314,0.475723 -0.66662,0.833548 l -4e-5,-1.027841 z m 9.59373,7e-6 c -0.67498,-5.8e-5 -1.2183,0.09491 -1.62988,0.513658 -0.41156,0.418717 -0.61753,0.971046 -0.61753,1.656236 l 0,1.873265 c -4e-5,0.685192 0.20597,1.237515 0.61753,1.656235 0.41158,0.411107 0.95491,0.616495 1.62988,0.616492 0.47742,-1.7e-5 0.88049,-0.102935 1.20975,-0.308505 0.33749,-0.205556 0.56378,-0.487089 0.67903,-0.844908 l -4e-5,1.289845 c 4e-5,0.913573 -0.49796,1.370456 -1.49398,1.370457 l -1.79006,2e-6 1e-5,0.513666 1.79007,-2e-6 c 1.40758,3.6e-5 2.1115,-0.627949 2.1115,-1.88412 l 0,-6.452325 -0.61754,-2.4e-5 3e-5,1.039203 c -0.11521,-0.357808 -0.34154,-0.63935 -0.67903,-0.844903 -0.32926,-0.20557 -0.73232,-0.19431 -1.20974,-0.194302 z m 5.34593,0 0,0.513657 2.1735,3e-6 1e-5,5.288563 -2.48202,-10e-7 0,0.513667 5.43274,0 -1e-5,-0.513666 -2.3337,7e-6 -1e-5,-5.80223 z m 7.28482,-4e-6 1e-5,6.315896 0.61753,2.5e-5 0,-4.146 c -5e-5,-0.555761 0.15642,-0.993854 0.46922,-1.313608 0.32102,-0.319771 0.75329,-0.342104 1.29656,-0.342107 0.53505,4e-6 0.95479,0.02231 1.25936,0.342107 0.30456,0.312135 0.45682,0.750234 0.45681,1.313611 l 0,4.146 0.61754,2.4e-5 0,-4.226105 c 0,-0.677566 -0.20179,-1.214344 -0.60513,-1.61024 -0.40334,-0.395845 -0.93832,-0.479556 -1.60507,-0.47955 -0.48565,1.5e-5 -0.89341,-0.01129 -1.22267,0.194297 -0.32102,0.197938 -0.54314,0.475723 -0.66662,0.833548 l -4e-5,-1.027841 z m 9.76685,-4e-6 c -0.74906,1.4e-5 -1.34192,0.09497 -1.77819,0.513671 -0.42803,0.411107 -0.64181,0.963428 -0.64182,1.656231 l 0,1.94096 c 2e-5,0.692802 0.21379,1.248882 0.64182,1.667599 0.42804,0.411113 1.02091,0.537437 1.77819,0.537436 0.63382,4.1e-5 1.15629,-0.06947 1.56786,-0.366387 0.4198,-0.296902 0.67946,-0.700181 0.77825,-1.210263 l -0.61753,-2.5e-5 c -0.0658,0.357815 -0.25514,0.639356 -0.56793,0.844911 -0.31279,0.205526 -0.69969,0.229444 -1.16065,0.229438 -0.57621,-2e-5 -1.02098,-0.08074 -1.33377,-0.400492 -0.3128,-0.319752 -0.4687,-0.754103 -0.4687,-1.302243 l 1e-5,-0.856282 4.19768,10e-7 2e-5,-1.084689 c -2e-5,-0.692793 -0.21378,-1.245116 -0.64182,-1.656229 -0.4198,-0.418763 -1.00432,-0.513664 -1.75338,-0.513669 z m 2e-5,0.502295 c 0.56797,1.6e-5 1.0044,0.04612 1.30896,0.365876 0.3128,0.319742 0.46922,0.753581 0.46923,1.30173 l 4e-5,0.59376 -3.58066,-5e-6 -4e-5,-0.59376 c -5e-5,-0.555761 0.1559,-0.989585 0.4687,-1.301726 0.31279,-0.319743 0.75757,-0.365875 1.33377,-0.365875 z m -104.613771,0.01189 c 0.567967,1.7e-5 1.003889,0.03427 1.308453,0.353985 0.312791,0.319753 0.469213,0.753582 0.46922,1.301731 l 4.1e-5,0.59376 -3.580659,-5e-6 -4.1e-5,-0.593761 c -4.7e-5,-0.55576 0.156422,-0.989586 0.469221,-1.301726 0.31279,-0.319754 0.757565,-0.353983 1.333765,-0.353984 z m 15.266261,3e-6 c 0.56796,1.6e-5 1.00439,0.03424 1.30896,0.353984 0.31279,0.319742 0.46921,0.753581 0.46922,1.30173 l 4e-5,0.593761 -3.58066,-6e-6 -4e-5,-0.59376 c -5e-5,-0.55576 0.15642,-0.989586 0.46922,-1.301726 0.31279,-0.319754 0.75705,-0.353982 1.33326,-0.353983 z m 14.76705,-5e-6 c 0.55973,1.3e-5 0.992,0.02236 1.29656,0.342101 0.3128,0.312138 0.46923,0.750235 0.46922,1.313612 l 0,1.873276 c 5e-5,0.555761 -0.15643,0.993845 -0.46922,1.313608 -0.30456,0.312133 -0.73683,0.445459 -1.29656,0.445455 -0.55152,-9e-6 -0.98326,-0.133321 -1.29604,-0.445451 -0.30458,-0.319768 -0.45682,-0.757857 -0.45683,-1.31361 l 1e-5,-1.873276 c -1e-5,-0.563377 0.15225,-1.001476 0.45681,-1.313609 0.31279,-0.319764 0.74453,-0.342105 1.29605,-0.342106 z m 22.27461,6e-6 c 0.56797,1.7e-5 1.00439,0.03424 1.30896,0.353984 0.31279,0.319743 0.46871,0.753583 0.46871,1.301722 l 4e-5,0.59376 -3.58067,6e-6 -4e-5,-0.593761 c -4e-5,-0.55576 0.15645,-0.989587 0.46923,-1.301727 0.31279,-0.319753 0.75757,-0.353983 1.33377,-0.353984 z m 15.26418,-2e-6 c 0.56797,1.7e-5 1.0044,0.03424 1.30897,0.353984 0.31279,0.319743 0.46922,0.753581 0.46922,1.301731 l 4e-5,0.59376 -3.58066,-5e-6 -4e-5,-0.59376 c 5e-5,-0.555767 0.15644,-0.989588 0.46922,-1.301727 0.3128,-0.319754 0.75705,-0.353983 1.33325,-0.353983 z m 14.76758,4e-6 c 0.55974,1.3e-5 0.99146,0.02229 1.29604,0.342092 0.31278,0.312139 0.46922,0.750235 0.46922,1.313613 l 0,1.873275 c -5e-5,0.555767 -0.15643,0.993855 -0.46922,1.313609 -0.30457,0.312143 -0.7363,0.445456 -1.29604,0.445453 -0.55151,-10e-6 -0.98377,-0.133311 -1.29657,-0.445449 -0.30455,-0.31976 -0.45681,-0.757848 -0.45681,-1.313611 l -1e-5,-1.873276 c 0,-0.563377 0.15226,-1.001467 0.45683,-1.31361 0.31279,-0.319774 0.74505,-0.342097 1.29656,-0.342096 z" /></svg>
