<?xml version="1.0" encoding="UTF-8" standalone="no"?>
<!-- Created with Inkscape (http://www.inkscape.org/) -->

<svg
   version="1.1"
   id="svg1"
   width="303.37299"
   height="303.37299"
   viewBox="0 0 303.37299 303.37299"
   sodipodi:docname="brave_color_lightbackground.eps"
   xmlns:inkscape="http://www.inkscape.org/namespaces/inkscape"
   xmlns:sodipodi="http://sodipodi.sourceforge.net/DTD/sodipodi-0.dtd"
   xmlns="http://www.w3.org/2000/svg"
   xmlns:svg="http://www.w3.org/2000/svg">
  <defs
     id="defs1" />
  <sodipodi:namedview
     id="namedview1"
     pagecolor="#ffffff"
     bordercolor="#000000"
     borderopacity="0.25"
     inkscape:showpageshadow="2"
     inkscape:pageopacity="0.0"
     inkscape:pagecheckerboard="0"
     inkscape:deskcolor="#d1d1d1">
    <inkscape:page
       x="0"
       y="0"
       inkscape:label="1"
       id="page1"
       width="303.37299"
       height="303.37299"
       margin="0"
       bleed="0" />
  </sodipodi:namedview>
  <g
     id="g1"
     inkscape:groupmode="layer"
     inkscape:label="1">
    <g
       id="group-R5">
      <path
         id="path2"
         style="fill:#ffffff;fill-opacity:1;fill-rule:evenodd;stroke:none;stroke-width:0.133333"
         d="M 105.08298,-2.8391915e-5 78.543916,30.085904 c 0,0 -23.301087,-6.46732 -34.304687,4.527347 C 33.235535,45.60925 24.172822,55.312464 24.172822,55.312464 l 7.121094,17.462892 -9.0625,25.873053 c 0,0 26.652458,100.872601 29.775391,113.191401 6.149467,24.25467 10.355364,33.63423 27.83203,45.92383 17.476533,12.28907 49.192433,33.63385 54.371093,36.86719 5.17814,3.23489 11.6511,8.74218 17.47656,8.74218 5.82534,0 12.2979,-5.50729 17.47656,-8.74218 5.17734,-3.23334 36.89509,-24.57812 54.37109,-36.86719 17.476,-12.2896 21.68404,-21.66916 27.83204,-45.92383 3.12267,-12.3188 29.77539,-113.191401 29.77539,-113.191401 l -9.06249,-25.873053 7.12109,-17.462892 c 0,0 -9.06241,-9.703214 -20.06641,-20.699213 -11.004,-10.994667 -34.30468,-4.527347 -34.30468,-4.527347 L 198.29001,-2.8391915e-5 H 151.68649 Z M 151.68649,46.23825 c 0,0 5.17866,0.01747 12.94532,2.605467 1.56934,0.522667 3.16414,1.072573 4.74414,1.61524 6.23733,2.146667 12.22165,4.207027 15.32032,4.207027 3.884,0 32.68945,-5.5 32.68945,-5.5 0,0 34.13281,41.234879 34.13281,50.046878 0,7.286668 -2.93463,10.139378 -6.39063,13.498038 -0.724,0.704 -1.4727,1.42932 -2.2207,2.22266 l -25.59375,27.16015 c -0.25467,0.26934 -0.53595,0.55219 -0.83595,0.85352 -2.55466,2.56667 -6.31481,6.34571 -3.66014,12.62304 0.17733,0.41867 0.35958,0.84598 0.54492,1.27931 2.90933,6.80133 6.50301,15.19734 1.92968,23.70508 -4.86534,9.05053 -13.19906,15.09019 -18.53905,14.09179 -5.34,-0.99893 -17.88152,-7.54853 -22.49219,-10.53906 -4.612,-2.99227 -19.23048,-15.03849 -19.23048,-19.64649 0,-3.844 10.51309,-10.23903 15.62109,-13.34569 1.016,-0.61867 1.81664,-1.10731 2.27931,-1.41798 0.528,-0.356 1.41076,-0.90345 2.49609,-1.57812 4.66267,-2.89333 13.07706,-8.11956 13.28906,-10.43556 0.26,-2.85733 0.16164,-3.69328 -3.5957,-10.75194 -0.79866,-1.5 -1.73256,-3.1082 -2.69922,-4.76953 -3.57867,-6.152 -7.58394,-13.03995 -6.69727,-17.97462 1.00133,-5.570664 9.73415,-8.765357 17.13281,-11.470691 0.924,-0.337333 1.82803,-0.66748 2.69336,-0.994146 2.15867,-0.814667 4.87238,-1.83124 7.70704,-2.892574 7.38667,-2.764 15.59393,-5.834986 16.94727,-6.458986 1.87466,-0.864 1.3895,-1.68532 -4.28516,-2.222653 -0.75067,-0.072 -1.6852,-0.171827 -2.75587,-0.28516 -7.024,-0.746667 -19.97866,-2.119907 -26.27733,-0.36524 -1.23867,0.344 -2.62995,0.718613 -4.08595,1.11328 -7.076,1.914666 -15.74674,4.261293 -16.58008,5.613293 -0.14666,0.237333 -0.28916,0.44276 -0.42382,0.63476 -0.79734,1.132 -1.31822,1.867693 -0.43555,6.679693 0.26133,1.432 0.80271,4.250373 1.47071,7.734374 1.95466,10.20267 5.00272,26.11673 5.38672,29.6914 0.0533,0.5 0.11392,0.98193 0.16992,1.44726 0.48933,3.988 0.81436,6.64251 -3.82031,7.70118 -0.38533,0.088 -0.79156,0.18134 -1.21289,0.27734 -5.22934,1.2 -12.89758,2.95899 -15.66798,2.95899 -2.77186,0 -10.44618,-1.76095 -15.67578,-2.96095 -0.4188,-0.096 -0.82121,-0.18738 -1.20508,-0.27538 -4.636,-1.05867 -4.31133,-3.71318 -3.82226,-7.70118 0.0567,-0.46533 0.11632,-0.94726 0.16992,-1.44726 0.38547,-3.58 3.44222,-19.53241 5.39649,-29.73241 0.664,-3.465338 1.20102,-6.266697 1.46289,-7.693364 0.88133,-4.810667 0.36072,-5.547693 -0.43555,-6.679693 -0.13547,-0.192 -0.27796,-0.397427 -0.42383,-0.63476 -0.8328,-1.352 -9.50354,-3.698627 -16.58008,-5.613293 -1.4568,-0.394667 -2.84687,-0.76928 -4.08593,-1.11328 -6.2984,-1.754667 -19.252415,-0.381427 -26.277348,0.36524 -1.071867,0.113333 -2.004793,0.21316 -2.75586,0.28516 -5.674,0.537333 -6.158489,1.358653 -4.285156,2.222653 1.353733,0.624 9.55594,3.694986 16.941404,6.458986 2.83587,1.061334 5.55196,2.076574 7.71289,2.892574 0.8656,0.326666 1.76776,0.657426 2.69336,0.996093 7.39734,2.704 16.13175,5.89808 17.13282,11.468744 0.8864,4.93334 -3.11772,11.81871 -6.69532,17.97071 -0.96666,1.66267 -1.90366,3.27211 -2.70312,4.77344 -3.7572,7.05866 -3.85611,7.89461 -3.59571,10.75194 0.21147,2.316 8.62653,7.5409 13.28907,10.43556 1.0864,0.67467 1.96796,1.22212 2.49609,1.57812 0.46253,0.31067 1.26476,0.79868 2.2793,1.41602 5.1068,3.10666 15.62109,9.50232 15.62109,13.34765 0,4.608 -14.61705,16.65422 -19.22851,19.64649 -4.61187,2.99053 -17.15206,9.54013 -22.49219,10.53906 -5.3396,0.9984 -13.673998,-5.04126 -18.539065,-14.09179 -4.5724,-8.50667 -0.980178,-16.9018 1.929688,-23.70313 0.185333,-0.43334 0.367321,-0.86126 0.544921,-1.28126 2.654667,-6.27866 -1.107442,-10.05833 -3.662109,-12.625 -0.298933,-0.3 -0.582737,-0.58356 -0.835937,-0.85156 l -25.59375,-27.16015 c -0.747333,-0.79334 -1.494749,-1.51803 -2.218749,-2.2207 -3.4572,-3.36 -6.392579,-6.21333 -6.392579,-13.499998 0,-8.811999 34.134766,-50.046878 34.134766,-50.046878 0,0 28.803634,5.5 32.687504,5.5 3.09893,0 9.08231,-2.06036 15.32031,-4.207027 1.57973,-0.542667 3.17689,-1.092573 4.74609,-1.61524 7.7672,-2.588 12.94531,-2.605467 12.94531,-2.605467 z m 0,142.55664 c 1.77454,0 13.14102,4.01043 22.26368,8.72656 2.072,1.07094 4.0134,2.07072 5.80274,2.99219 6.08933,3.1348 10.40962,5.36201 12.04296,6.38281 2.112,1.32134 0.8244,3.81201 -1.0996,5.17188 -1.92534,1.3604 -27.79208,21.37589 -30.30275,23.58789 -0.32133,0.28226 -0.66095,0.58989 -1.01561,0.91015 -2.42,2.17867 -5.50395,4.95703 -7.69142,4.95703 -2.188,0 -5.27651,-2.78173 -7.69531,-4.96093 -0.3536,-0.31827 -0.6934,-0.62399 -1.01367,-0.90625 -2.51093,-2.212 -28.37585,-22.22749 -30.30078,-23.58789 -1.92507,-1.35987 -3.21268,-3.85054 -1.09961,-5.17188 1.6344,-1.0224 5.95793,-3.25014 12.05273,-6.38867 1.78654,-0.9204 3.72524,-1.91699 5.79297,-2.98633 9.1208,-4.71613 20.48927,-8.72656 22.26367,-8.72656 z" />
    </g>
  </g>
</svg>
