<?xml version="1.0" encoding="UTF-8" standalone="no"?>
<!-- Uploaded to: SVG Repo, www.svgrepo.com, Generator: SVG Repo Mixer Tools -->

<svg
   width="800"
   height="800"
   viewBox="0 0 24 24"
   fill="none"
   version="1.1"
   id="svg1"
   sodipodi:docname="terminal-svgrepo-com.svg"
   inkscape:export-filename="../Programming/CPP/km_os/apps/weston/icon.png"
   inkscape:export-xdpi="96"
   inkscape:export-ydpi="96"
   xmlns:inkscape="http://www.inkscape.org/namespaces/inkscape"
   xmlns:sodipodi="http://sodipodi.sourceforge.net/DTD/sodipodi-0.dtd"
   xmlns="http://www.w3.org/2000/svg"
   xmlns:svg="http://www.w3.org/2000/svg">
  <defs
     id="defs1" />
  <sodipodi:namedview
     id="namedview1"
     pagecolor="#ffffff"
     bordercolor="#000000"
     borderopacity="0.25"
     inkscape:showpageshadow="2"
     inkscape:pageopacity="0.0"
     inkscape:pagecheckerboard="0"
     inkscape:deskcolor="#d1d1d1">
    <inkscape:page
       x="0"
       y="0"
       width="24"
       height="24"
       id="page2"
       margin="0"
       bleed="0" />
  </sodipodi:namedview>
  <g
     id="System / Terminal">
    <path
       id="Vector"
       d="M 17,15 H 12 M 7,10 10,12.5 7,15 m -4,0.8002 v -7.6 C 3,7.08009 3,6.51962 3.21799,6.0918 3.40973,5.71547 3.71547,5.40973 4.0918,5.21799 4.51962,5 5.08009,5 6.2002,5 h 11.6 c 1.1201,0 1.6794,0 2.1072,0.21799 0.3763,0.19174 0.6831,0.49748 0.8748,0.87381 C 21,6.5192 21,7.07899 21,8.19691 v 7.60619 c 0,1.1179 0,1.6769 -0.2178,2.1043 -0.1917,0.3763 -0.4985,0.6831 -0.8748,0.8748 C 19.48,19 18.921,19 17.8031,19 H 6.19691 C 5.07899,19 4.5192,19 4.0918,18.7822 3.71547,18.5905 3.40973,18.2837 3.21799,17.9074 3,17.4796 3,16.9203 3,15.8002 Z"
       stroke="#000000"
       stroke-width="2"
       stroke-linecap="round"
       stroke-linejoin="round"
       style="stroke:#ffffff;stroke-opacity:1" />
  </g>
</svg>
